# xmcd
#
# Track frame offsets:
#	150
#	14570
#	29815
#	44480
#	57978
#	71441
#	86676
#	101511
#	116388
#	129351
#	144243
#	156781
#	171581
#	186763
#	201726
#	217263
#	231291
#	246053
#	259528
#	273958
#	286982
#	296277
#	308185
#	322187
#
# Disc length: 4479 seconds
#
# Revision: 0
# Processed by: cddbd v1.5.2PL0 Copyright (c) Steve Scherf et al.
# Submitted via: EasyCDDAExtractor 2011.3.0.0
#
DISCID=74117d18
DTITLE=Billie Holiday - Right to sing the blues [CD9)
DYEAR=2008
DGENRE=Blues
TTITLE0=Solitude
TTITLE1=Weep No More
TTITLE2=Girls Were Made To Take Care of Boys
TTITLE3=I Love Your Porgy
TTITLE4=My Man
TTITLE5=Ain't Nobody's Business If I Do
TTITLE6=Baby Get Lost
TTITLE7=Keeps On A Rainin'
TTITLE8=Them There Eyes
TTITLE9=Do Your Duty
TTITLE10=Gimme A Pigfoot And A Bottle Of Beer
TTITLE11=You Can't Lose A Broken Heart
TTITLE12=My Sweet Hunk O'Trash
TTITLE13=Now Or Never
TTITLE14=You're My Thrill
TTITLE15=Crazy He Calls Me
TTITLE16=Please Tell Me Now
TTITLE17=Somebody's On My Mind
TTITLE18=Got Bless The Child
TTITLE19=This Is Heaven To Me
TTITLE20=Blue Turning Grey Over You
TTITLE21=Be Fair With Me
TTITLE22=Rocky Mountain Blues
TTITLE23=Detour Ahead
EXTD=
EXTT0=
EXTT1=
EXTT2=
EXTT3=
EXTT4=
EXTT5=
EXTT6=
EXTT7=
EXTT8=
EXTT9=
EXTT10=
EXTT11=
EXTT12=
EXTT13=
EXTT14=
EXTT15=
EXTT16=
EXTT17=
EXTT18=
EXTT19=
EXTT20=
EXTT21=
EXTT22=
EXTT23=
PLAYORDER=
